#usda 1.0
(
    defaultPrim = "Rink"
    upAxis = "Z"
    metersPerUnit = 1
    customLayerData = {
        string source = "Hockey_AI build_rink_usd.py"
        double rink_length_m = 60.9600
        double rink_width_m  = 25.9080
        double corner_radius_m = 8.5344
    }
)

def Xform "Rink" (kind = "assembly")
{
    double3 xformOp:translate = (30.4800, 12.9540, 0)
    uniform token[] xformOpOrder = ["xformOp:translate"]

    def Mesh "Ice"
    {
        point3f[] points = [(0.0000, -0.5182, 0.0000), (-21.9456, -12.9540, 0.0000), (21.9456, -12.9540, 0.0000), (23.0596, -12.8810, 0.0000), (24.1545, -12.6632, 0.0000), (25.2116, -12.3044, 0.0000), (26.2128, -11.8106, 0.0000), (27.1410, -11.1904, 0.0000), (27.9803, -10.4543, 0.0000), (28.7164, -9.6150, 0.0000), (29.3366, -8.6868, 0.0000), (29.8304, -7.6856, 0.0000), (30.1892, -6.6285, 0.0000), (30.4070, -5.5336, 0.0000), (30.4800, -4.4196, 0.0000), (30.4070, 5.5336, 0.0000), (30.1892, 6.6285, 0.0000), (29.8304, 7.6856, 0.0000), (29.3366, 8.6868, 0.0000), (28.7164, 9.6150, 0.0000), (27.9803, 10.4543, 0.0000), (27.1410, 11.1904, 0.0000), (26.2128, 11.8106, 0.0000), (25.2116, 12.3044, 0.0000), (24.1545, 12.6632, 0.0000), (23.0596, 12.8810, 0.0000), (21.9456, 12.9540, 0.0000), (-23.0596, 12.8810, 0.0000), (-24.1545, 12.6632, 0.0000), (-25.2116, 12.3044, 0.0000), (-26.2128, 11.8106, 0.0000), (-27.1410, 11.1904, 0.0000), (-27.9803, 10.4543, 0.0000), (-28.7164, 9.6150, 0.0000), (-29.3366, 8.6868, 0.0000), (-29.8304, 7.6856, 0.0000), (-30.1892, 6.6285, 0.0000), (-30.4070, 5.5336, 0.0000), (-30.4800, 4.4196, 0.0000), (-30.4070, -5.5336, 0.0000), (-30.1892, -6.6285, 0.0000), (-29.8304, -7.6856, 0.0000), (-29.3366, -8.6868, 0.0000), (-28.7164, -9.6150, 0.0000), (-27.9803, -10.4543, 0.0000), (-27.1410, -11.1904, 0.0000), (-26.2128, -11.8106, 0.0000), (-25.2116, -12.3044, 0.0000), (-24.1545, -12.6632, 0.0000), (-23.0596, -12.8810, 0.0000), (-21.9456, -12.9540, 0.0000)]
        int[] faceVertexCounts = [3, 3, 3, 3, 3, 3, 3, 3, 3, 3, 3, 3, 3, 3, 3, 3, 3, 3, 3, 3, 3, 3, 3, 3, 3, 3, 3, 3, 3, 3, 3, 3, 3, 3, 3, 3, 3, 3, 3, 3, 3, 3, 3, 3, 3, 3, 3, 3, 3, 3]
        int[] faceVertexIndices = [0, 1, 2, 0, 2, 3, 0, 3, 4, 0, 4, 5, 0, 5, 6, 0, 6, 7, 0, 7, 8, 0, 8, 9, 0, 9, 10, 0, 10, 11, 0, 11, 12, 0, 12, 13, 0, 13, 14, 0, 14, 15, 0, 15, 16, 0, 16, 17, 0, 17, 18, 0, 18, 19, 0, 19, 20, 0, 20, 21, 0, 21, 22, 0, 22, 23, 0, 23, 24, 0, 24, 25, 0, 25, 26, 0, 26, 27, 0, 27, 28, 0, 28, 29, 0, 29, 30, 0, 30, 31, 0, 31, 32, 0, 32, 33, 0, 33, 34, 0, 34, 35, 0, 35, 36, 0, 36, 37, 0, 37, 38, 0, 38, 39, 0, 39, 40, 0, 40, 41, 0, 41, 42, 0, 42, 43, 0, 43, 44, 0, 44, 45, 0, 45, 46, 0, 46, 47, 0, 47, 48, 0, 48, 49, 0, 49, 50, 0, 50, 1]
        color3f[] primvars:displayColor = [(0.940, 0.960, 0.980)]
        uniform bool doubleSided = true
    }

    def Mesh "CenterLine"
    {
        point3f[] points = [(-0.1524, -12.9540, 0.0100), (0.1524, -12.9540, 0.0100), (0.1524, 12.9540, 0.0100), (-0.1524, 12.9540, 0.0100)]
        int[] faceVertexCounts = [4]
        int[] faceVertexIndices = [0, 1, 2, 3]
        color3f[] primvars:displayColor = [(0.850, 0.120, 0.160)]
        uniform bool doubleSided = true
    }

    def Cylinder "CenterDot"
    {
        double radius = 0.1524
        double height = 0.005
        uniform token axis = "Z"
        double3 xformOp:translate = (0.0000, 0.0000, 0.0130)
        uniform token[] xformOpOrder = ["xformOp:translate"]
        color3f[] primvars:displayColor = [(0.850, 0.120, 0.160)]
    }

    def Mesh "BlueLineL"
    {
        point3f[] points = [(-7.7724, -12.9540, 0.0100), (-7.4676, -12.9540, 0.0100), (-7.4676, 12.9540, 0.0100), (-7.7724, 12.9540, 0.0100)]
        int[] faceVertexCounts = [4]
        int[] faceVertexIndices = [0, 1, 2, 3]
        color3f[] primvars:displayColor = [(0.130, 0.430, 0.830)]
        uniform bool doubleSided = true
    }

    def Mesh "BlueLineR"
    {
        point3f[] points = [(7.4676, -12.9540, 0.0100), (7.7724, -12.9540, 0.0100), (7.7724, 12.9540, 0.0100), (7.4676, 12.9540, 0.0100)]
        int[] faceVertexCounts = [4]
        int[] faceVertexIndices = [0, 1, 2, 3]
        color3f[] primvars:displayColor = [(0.130, 0.430, 0.830)]
        uniform bool doubleSided = true
    }

    def Mesh "GoalLineL"
    {
        point3f[] points = [(-27.2796, -11.2010, 0.0100), (-26.9748, -11.2010, 0.0100), (-26.9748, 11.2010, 0.0100), (-27.2796, 11.2010, 0.0100)]
        int[] faceVertexCounts = [4]
        int[] faceVertexIndices = [0, 1, 2, 3]
        color3f[] primvars:displayColor = [(0.850, 0.120, 0.160)]
        uniform bool doubleSided = true
    }

    def Mesh "GoalLineR"
    {
        point3f[] points = [(26.9748, -11.2010, 0.0100), (27.2796, -11.2010, 0.0100), (27.2796, 11.2010, 0.0100), (26.9748, 11.2010, 0.0100)]
        int[] faceVertexCounts = [4]
        int[] faceVertexIndices = [0, 1, 2, 3]
        color3f[] primvars:displayColor = [(0.850, 0.120, 0.160)]
        uniform bool doubleSided = true
    }

    def Cylinder "EndZoneDot_1"
    {
        double radius = 0.1524
        double height = 0.005
        uniform token axis = "Z"
        double3 xformOp:translate = (-21.0312, -6.7056, 0.0130)
        uniform token[] xformOpOrder = ["xformOp:translate"]
        color3f[] primvars:displayColor = [(0.850, 0.120, 0.160)]
    }

    def Cylinder "EndZoneDot_2"
    {
        double radius = 0.1524
        double height = 0.005
        uniform token axis = "Z"
        double3 xformOp:translate = (-21.0312, 6.7056, 0.0130)
        uniform token[] xformOpOrder = ["xformOp:translate"]
        color3f[] primvars:displayColor = [(0.850, 0.120, 0.160)]
    }

    def Cylinder "EndZoneDot_3"
    {
        double radius = 0.1524
        double height = 0.005
        uniform token axis = "Z"
        double3 xformOp:translate = (21.0312, -6.7056, 0.0130)
        uniform token[] xformOpOrder = ["xformOp:translate"]
        color3f[] primvars:displayColor = [(0.850, 0.120, 0.160)]
    }

    def Cylinder "EndZoneDot_4"
    {
        double radius = 0.1524
        double height = 0.005
        uniform token axis = "Z"
        double3 xformOp:translate = (21.0312, 6.7056, 0.0130)
        uniform token[] xformOpOrder = ["xformOp:translate"]
        color3f[] primvars:displayColor = [(0.850, 0.120, 0.160)]
    }

    def Cylinder "NeutralDot_1"
    {
        double radius = 0.1524
        double height = 0.005
        uniform token axis = "Z"
        double3 xformOp:translate = (-6.0960, -6.7056, 0.0130)
        uniform token[] xformOpOrder = ["xformOp:translate"]
        color3f[] primvars:displayColor = [(0.850, 0.120, 0.160)]
    }

    def Cylinder "NeutralDot_2"
    {
        double radius = 0.1524
        double height = 0.005
        uniform token axis = "Z"
        double3 xformOp:translate = (-6.0960, 6.7056, 0.0130)
        uniform token[] xformOpOrder = ["xformOp:translate"]
        color3f[] primvars:displayColor = [(0.850, 0.120, 0.160)]
    }

    def Cylinder "NeutralDot_3"
    {
        double radius = 0.1524
        double height = 0.005
        uniform token axis = "Z"
        double3 xformOp:translate = (9.1440, -6.7056, 0.0130)
        uniform token[] xformOpOrder = ["xformOp:translate"]
        color3f[] primvars:displayColor = [(0.850, 0.120, 0.160)]
    }

    def Cylinder "NeutralDot_4"
    {
        double radius = 0.1524
        double height = 0.005
        uniform token axis = "Z"
        double3 xformOp:translate = (9.1440, 6.7056, 0.0130)
        uniform token[] xformOpOrder = ["xformOp:translate"]
        color3f[] primvars:displayColor = [(0.850, 0.120, 0.160)]
    }

    def Xform "NetL"
    {
        def Cube "Back"
        {
            double size = 1
            matrix4d xformOp:transform = ( (0.0732, 0, 0, 0), (0, 1.8288, 0, 0), (0, 0, 1.2200, 0), (-28.3464, 0.0000, 0.6100, 1) )
            uniform token[] xformOpOrder = ["xformOp:transform"]
            color3f[] primvars:displayColor = [(0.950, 0.950, 0.950)]
        }
        def Cylinder "Post1"
        {
            double radius = 0.04
            double height = 1.22
            uniform token axis = "Z"
            double3 xformOp:translate = (-27.1272, -0.9144, 0.6100)
            uniform token[] xformOpOrder = ["xformOp:translate"]
            color3f[] primvars:displayColor = [(0.800, 0.070, 0.110)]
        }
        def Cylinder "Post2"
        {
            double radius = 0.04
            double height = 1.22
            uniform token axis = "Z"
            double3 xformOp:translate = (-27.1272, 0.9144, 0.6100)
            uniform token[] xformOpOrder = ["xformOp:translate"]
            color3f[] primvars:displayColor = [(0.800, 0.070, 0.110)]
        }
        def Cylinder "Crossbar"
        {
            double radius = 0.04
            double height = 1.8288000000000002
            uniform token axis = "Y"
            double3 xformOp:translate = (-27.1272, 0.0000, 1.2200)
            uniform token[] xformOpOrder = ["xformOp:translate"]
            color3f[] primvars:displayColor = [(0.800, 0.070, 0.110)]
        }
    }

    def Xform "NetR"
    {
        def Cube "Back"
        {
            double size = 1
            matrix4d xformOp:transform = ( (0.0732, 0, 0, 0), (0, 1.8288, 0, 0), (0, 0, 1.2200, 0), (28.3464, 0.0000, 0.6100, 1) )
            uniform token[] xformOpOrder = ["xformOp:transform"]
            color3f[] primvars:displayColor = [(0.950, 0.950, 0.950)]
        }
        def Cylinder "Post1"
        {
            double radius = 0.04
            double height = 1.22
            uniform token axis = "Z"
            double3 xformOp:translate = (27.1272, -0.9144, 0.6100)
            uniform token[] xformOpOrder = ["xformOp:translate"]
            color3f[] primvars:displayColor = [(0.800, 0.070, 0.110)]
        }
        def Cylinder "Post2"
        {
            double radius = 0.04
            double height = 1.22
            uniform token axis = "Z"
            double3 xformOp:translate = (27.1272, 0.9144, 0.6100)
            uniform token[] xformOpOrder = ["xformOp:translate"]
            color3f[] primvars:displayColor = [(0.800, 0.070, 0.110)]
        }
        def Cylinder "Crossbar"
        {
            double radius = 0.04
            double height = 1.8288000000000002
            uniform token axis = "Y"
            double3 xformOp:translate = (27.1272, 0.0000, 1.2200)
            uniform token[] xformOpOrder = ["xformOp:translate"]
            color3f[] primvars:displayColor = [(0.800, 0.070, 0.110)]
        }
    }

}
